<svg width="48" height="48" viewBox="0 0 48 48" fill="none" xmlns="http://www.w3.org/2000/svg">
<g clip-path="url(#clip0_2_290)">
<path d="M12 21.8672C12 27.3223 16.4238 31.7402 21.873 31.7402C23.6836 31.7402 25.3594 31.2363 26.7891 30.375L31.4941 35.0859C31.9512 35.543 32.5664 35.7598 33.2051 35.7598C34.5586 35.7598 35.5605 34.7285 35.5605 33.3867C35.5605 32.7656 35.3379 32.168 34.8809 31.7109L30.2285 27.0352C31.1895 25.5527 31.7461 23.7773 31.7461 21.8672C31.7461 16.418 27.3223 12 21.873 12C16.4238 12 12 16.418 12 21.8672ZM15.2051 21.8672C15.2051 18.1992 18.1934 15.2051 21.8672 15.2051C25.5527 15.2051 28.5352 18.1992 28.5352 21.8672C28.5352 25.541 25.5527 28.5352 21.8672 28.5352C18.1934 28.5352 15.2051 25.541 15.2051 21.8672Z" fill="white"/>
</g>
<defs>
<clipPath id="clip0_2_290">
<rect width="23.9121" height="23.7656" fill="white" transform="translate(12 12)"/>
</clipPath>
</defs>
</svg>
