<svg width="48" height="48" viewBox="0 0 48 48" fill="none" xmlns="http://www.w3.org/2000/svg">
<g clip-path="url(#clip0_2_278)">
<path d="M19.2754 17.9805H28.9727C29.3008 17.9805 29.5527 17.7227 29.5527 17.3828C29.5527 17.0606 29.3008 16.8027 28.9727 16.8027H19.2754C18.9414 16.8027 18.6953 17.0606 18.6953 17.3828C18.6953 17.7227 18.9414 17.9805 19.2754 17.9805ZM17.8047 20.4707H30.4434C30.7832 20.4707 31.0586 20.2012 31.0586 19.8672C31.0586 19.5332 30.7832 19.2285 30.4434 19.2285H17.8047C17.459 19.2285 17.1894 19.5332 17.1894 19.8672C17.1894 20.2012 17.459 20.4707 17.8047 20.4707ZM14.1367 34.2461H34.1055C36.7891 34.2461 38.248 32.793 38.248 30.1328V23.4941C38.248 21.8359 38.0605 21.1152 37.2695 20.166L33.3379 15.2324C31.9902 13.5449 30.9883 13.0176 29.1777 13.0176H19.0703C17.2539 13.0176 16.2578 13.5566 14.8984 15.25L10.9727 20.166C10.1934 21.1152 10 21.8359 10 23.4941V30.1328C10 32.7988 11.4648 34.2461 14.1367 34.2461ZM24.1211 26.7168C22.3574 26.7168 21.0918 25.2344 21.0918 23.6406V23.4707C21.0918 22.9199 20.7578 22.3809 20.0547 22.3809H13.4395C13.0645 22.3809 12.9824 22.0586 13.1758 21.8066L17.5059 16.252C17.9394 15.6836 18.4492 15.4258 19.1465 15.4258H29.0195C29.7109 15.4258 30.2266 15.6836 30.6543 16.252L34.873 21.6543C35.1191 21.9648 35.0371 22.3809 34.5508 22.3809H28.1934C27.4902 22.3809 27.1621 22.9199 27.1621 23.4707V23.6406C27.1621 25.2344 25.8965 26.7168 24.1211 26.7168Z" fill="white"/>
</g>
<defs>
<clipPath id="clip0_2_278">
<rect width="28.5996" height="21.2461" fill="white" transform="translate(10 13)"/>
</clipPath>
</defs>
</svg>
